<mxfile host="app.diagrams.net" modified="2022-10-31T17:18:58.571Z" agent="5.0 (Macintosh; Intel Mac OS X 10_15_7) AppleWebKit/537.36 (KHTML, like Gecko) Chrome/106.0.0.0 Safari/537.36" etag="hC2zvAJizXiU74sN_gPw" version="20.5.1" type="github">
  <diagram id="FadHVGKdeSCt9T6Zqdwg" name="Page-1">
    <mxGraphModel dx="1113" dy="760" grid="1" gridSize="10" guides="1" tooltips="1" connect="1" arrows="1" fold="1" page="1" pageScale="1" pageWidth="827" pageHeight="1169" math="0" shadow="0">
      <root>
        <mxCell id="0" />
        <mxCell id="1" parent="0" />
        <mxCell id="YWUODvXiD-7NT9cooijK-2" value="" style="shape=actor;whiteSpace=wrap;html=1;" vertex="1" parent="1">
          <mxGeometry x="60" y="555" width="40" height="60" as="geometry" />
        </mxCell>
        <mxCell id="YWUODvXiD-7NT9cooijK-3" value="" style="shape=actor;whiteSpace=wrap;html=1;" vertex="1" parent="1">
          <mxGeometry x="80" y="585" width="40" height="60" as="geometry" />
        </mxCell>
        <mxCell id="YWUODvXiD-7NT9cooijK-4" value="" style="line;strokeWidth=2;direction=south;html=1;" vertex="1" parent="1">
          <mxGeometry x="95" y="520" width="10" height="50" as="geometry" />
        </mxCell>
        <mxCell id="YWUODvXiD-7NT9cooijK-5" value="" style="line;strokeWidth=2;direction=south;html=1;" vertex="1" parent="1">
          <mxGeometry x="75" y="500" width="10" height="50" as="geometry" />
        </mxCell>
        <mxCell id="YWUODvXiD-7NT9cooijK-6" value="" style="line;strokeWidth=2;html=1;" vertex="1" parent="1">
          <mxGeometry x="80" y="490" width="160" height="10" as="geometry" />
        </mxCell>
        <mxCell id="YWUODvXiD-7NT9cooijK-7" value="" style="line;strokeWidth=2;html=1;" vertex="1" parent="1">
          <mxGeometry x="100" y="510" width="160" height="10" as="geometry" />
        </mxCell>
        <mxCell id="YWUODvXiD-7NT9cooijK-8" value="&lt;font style=&quot;font-size: 16px;&quot;&gt;Mac / Windows Laptops&lt;/font&gt;" style="rounded=0;whiteSpace=wrap;html=1;" vertex="1" parent="1">
          <mxGeometry x="240" y="470" width="120" height="60" as="geometry" />
        </mxCell>
        <mxCell id="YWUODvXiD-7NT9cooijK-9" value="" style="line;strokeWidth=2;direction=south;html=1;" vertex="1" parent="1">
          <mxGeometry x="95" y="650" width="10" height="80" as="geometry" />
        </mxCell>
        <mxCell id="YWUODvXiD-7NT9cooijK-10" value="" style="line;strokeWidth=2;direction=south;html=1;" vertex="1" parent="1">
          <mxGeometry x="70" y="620" width="10" height="120" as="geometry" />
        </mxCell>
        <mxCell id="YWUODvXiD-7NT9cooijK-12" value="" style="line;strokeWidth=2;html=1;" vertex="1" parent="1">
          <mxGeometry x="190" y="750" width="160" height="20" as="geometry" />
        </mxCell>
        <mxCell id="YWUODvXiD-7NT9cooijK-13" value="Staff / Faculty / Students" style="text;strokeColor=none;fillColor=none;align=left;verticalAlign=middle;spacingLeft=4;spacingRight=4;overflow=hidden;points=[[0,0.5],[1,0.5]];portConstraint=eastwest;rotatable=0;fontSize=14;" vertex="1" parent="1">
          <mxGeometry x="95" y="560" width="165" height="30" as="geometry" />
        </mxCell>
        <mxCell id="YWUODvXiD-7NT9cooijK-14" value="&lt;font style=&quot;font-size: 16px;&quot;&gt;Iphones&lt;/font&gt;" style="rounded=0;whiteSpace=wrap;html=1;" vertex="1" parent="1">
          <mxGeometry x="70" y="730" width="120" height="60" as="geometry" />
        </mxCell>
        <mxCell id="YWUODvXiD-7NT9cooijK-17" value="&lt;font style=&quot;font-size: 13px;&quot;&gt;Wireless Access Point &lt;br&gt;/ Router&lt;br&gt;(wifi)&lt;/font&gt;" style="ellipse;shape=cloud;whiteSpace=wrap;html=1;" vertex="1" parent="1">
          <mxGeometry x="270" y="555" width="210" height="140" as="geometry" />
        </mxCell>
        <mxCell id="YWUODvXiD-7NT9cooijK-18" value="" style="line;strokeWidth=2;direction=south;html=1;" vertex="1" parent="1">
          <mxGeometry x="340" y="530" width="10" height="40" as="geometry" />
        </mxCell>
        <mxCell id="YWUODvXiD-7NT9cooijK-19" value="" style="line;strokeWidth=2;direction=south;html=1;" vertex="1" parent="1">
          <mxGeometry x="350" y="530" width="10" height="40" as="geometry" />
        </mxCell>
        <mxCell id="YWUODvXiD-7NT9cooijK-20" value="" style="line;strokeWidth=2;direction=south;html=1;" vertex="1" parent="1">
          <mxGeometry x="350" y="680" width="10" height="80" as="geometry" />
        </mxCell>
        <mxCell id="YWUODvXiD-7NT9cooijK-35" value="&lt;ol style=&quot;font-size: 16px;&quot;&gt;&lt;li&gt;Website&lt;/li&gt;&lt;li style=&quot;line-height: 1.8;&quot;&gt;Box / One drive Cloud Storage&lt;/li&gt;&lt;li style=&quot;line-height: 1.8;&quot;&gt;Fresh Services CRM&lt;/li&gt;&lt;li style=&quot;line-height: 1.8;&quot;&gt;Okta Identity Management Portal&lt;/li&gt;&lt;li style=&quot;line-height: 1.8;&quot;&gt;Workday&lt;/li&gt;&lt;li style=&quot;line-height: 1.8;&quot;&gt;Adp Payroll&lt;/li&gt;&lt;li style=&quot;line-height: 1.8;&quot;&gt;JP Morgan Chase&lt;/li&gt;&lt;li style=&quot;line-height: 1.8;&quot;&gt;Payment Gateway&lt;/li&gt;&lt;li style=&quot;line-height: 1.8;&quot;&gt;Office 365&lt;/li&gt;&lt;li style=&quot;line-height: 1.8;&quot;&gt;Zoom&lt;/li&gt;&lt;li style=&quot;line-height: 1.8;&quot;&gt;Canvas&lt;/li&gt;&lt;/ol&gt;" style="verticalAlign=top;align=left;overflow=fill;fontSize=12;fontFamily=Helvetica;html=1;" vertex="1" parent="1">
          <mxGeometry x="520" y="470" width="290" height="320" as="geometry" />
        </mxCell>
        <mxCell id="YWUODvXiD-7NT9cooijK-36" value="" style="line;strokeWidth=2;html=1;" vertex="1" parent="1">
          <mxGeometry x="190" y="760" width="180" height="20" as="geometry" />
        </mxCell>
        <mxCell id="YWUODvXiD-7NT9cooijK-37" value="" style="line;strokeWidth=2;direction=south;html=1;" vertex="1" parent="1">
          <mxGeometry x="370" y="690" width="10" height="80" as="geometry" />
        </mxCell>
        <mxCell id="YWUODvXiD-7NT9cooijK-39" value="" style="line;strokeWidth=2;html=1;" vertex="1" parent="1">
          <mxGeometry x="470" y="615" width="50" height="20" as="geometry" />
        </mxCell>
        <mxCell id="YWUODvXiD-7NT9cooijK-41" value="" style="line;strokeWidth=2;html=1;" vertex="1" parent="1">
          <mxGeometry x="470" y="620" width="50" height="20" as="geometry" />
        </mxCell>
        <mxCell id="YWUODvXiD-7NT9cooijK-45" value="vpn" style="shape=singleArrow;whiteSpace=wrap;html=1;fontSize=16;rotation=90;arrowWidth=0.2917647058823513;arrowSize=0.2316176470588232;" vertex="1" parent="1">
          <mxGeometry x="342.5" y="730" width="120" height="37.5" as="geometry" />
        </mxCell>
        <mxCell id="YWUODvXiD-7NT9cooijK-48" value="High Performance Computing Cluster" style="rounded=1;whiteSpace=wrap;html=1;fontSize=16;" vertex="1" parent="1">
          <mxGeometry x="342.5" y="810" width="120" height="80" as="geometry" />
        </mxCell>
        <mxCell id="YWUODvXiD-7NT9cooijK-49" style="edgeStyle=orthogonalEdgeStyle;rounded=0;orthogonalLoop=1;jettySize=auto;html=1;exitX=1;exitY=0.5;exitDx=0;exitDy=0;exitPerimeter=0;fontSize=16;" edge="1" parent="1" source="YWUODvXiD-7NT9cooijK-45" target="YWUODvXiD-7NT9cooijK-45">
          <mxGeometry relative="1" as="geometry" />
        </mxCell>
        <mxCell id="YWUODvXiD-7NT9cooijK-50" value="" style="edgeStyle=elbowEdgeStyle;elbow=vertical;endArrow=classic;html=1;rounded=0;fontSize=16;exitX=0.952;exitY=0.758;exitDx=0;exitDy=0;exitPerimeter=0;entryX=0;entryY=0.5;entryDx=0;entryDy=0;" edge="1" parent="1" source="YWUODvXiD-7NT9cooijK-17" target="YWUODvXiD-7NT9cooijK-52">
          <mxGeometry width="50" height="50" relative="1" as="geometry">
            <mxPoint x="410" y="730" as="sourcePoint" />
            <mxPoint x="529.4000000000001" y="849.4000000000001" as="targetPoint" />
            <Array as="points">
              <mxPoint x="480" y="840" />
            </Array>
          </mxGeometry>
        </mxCell>
        <mxCell id="YWUODvXiD-7NT9cooijK-52" value="&lt;ol style=&quot;font-size: 14px;&quot;&gt;&lt;li&gt;Printers&lt;/li&gt;&lt;li&gt;Scanners&lt;/li&gt;&lt;li&gt;Desk Phones&lt;/li&gt;&lt;/ol&gt;" style="rounded=0;whiteSpace=wrap;html=1;align=left;" vertex="1" parent="1">
          <mxGeometry x="530" y="810" width="140" height="60" as="geometry" />
        </mxCell>
        <mxCell id="YWUODvXiD-7NT9cooijK-53" value="Internet Bases Cloud Hosted Services" style="text;html=1;strokeColor=none;fillColor=none;align=center;verticalAlign=middle;whiteSpace=wrap;rounded=0;fontSize=16;" vertex="1" parent="1">
          <mxGeometry x="530" y="400" width="270" height="70" as="geometry" />
        </mxCell>
        <mxCell id="YWUODvXiD-7NT9cooijK-54" value="&lt;font style=&quot;font-size: 14px;&quot;&gt;Internet Based Helpdesk Assets&lt;/font&gt;" style="text;html=1;strokeColor=none;fillColor=none;align=center;verticalAlign=middle;whiteSpace=wrap;rounded=0;fontSize=16;" vertex="1" parent="1">
          <mxGeometry x="540" y="880" width="120" height="30" as="geometry" />
        </mxCell>
        <mxCell id="YWUODvXiD-7NT9cooijK-56" value="&lt;font style=&quot;font-size: 15px;&quot;&gt;2FA&lt;/font&gt;" style="text;html=1;strokeColor=none;fillColor=none;align=center;verticalAlign=middle;whiteSpace=wrap;rounded=0;fontSize=13;" vertex="1" parent="1">
          <mxGeometry x="460" y="585" width="60" height="30" as="geometry" />
        </mxCell>
        <mxCell id="YWUODvXiD-7NT9cooijK-59" value="&lt;meta charset=&quot;utf-8&quot;&gt;&lt;span style=&quot;color: rgb(0, 0, 0); font-family: Helvetica; font-size: 15px; font-style: normal; font-variant-ligatures: normal; font-variant-caps: normal; font-weight: 400; letter-spacing: normal; orphans: 2; text-align: center; text-indent: 0px; text-transform: none; widows: 2; word-spacing: 0px; -webkit-text-stroke-width: 0px; background-color: rgb(248, 249, 250); text-decoration-thickness: initial; text-decoration-style: initial; text-decoration-color: initial; float: none; display: inline !important;&quot;&gt;2FA&lt;/span&gt;" style="text;whiteSpace=wrap;html=1;fontSize=15;" vertex="1" parent="1">
          <mxGeometry x="413" y="727.5" width="60" height="40" as="geometry" />
        </mxCell>
        <mxCell id="YWUODvXiD-7NT9cooijK-61" value="&lt;meta charset=&quot;utf-8&quot;&gt;&lt;span style=&quot;color: rgb(0, 0, 0); font-family: Helvetica; font-size: 15px; font-style: normal; font-variant-ligatures: normal; font-variant-caps: normal; font-weight: 400; letter-spacing: normal; orphans: 2; text-align: center; text-indent: 0px; text-transform: none; widows: 2; word-spacing: 0px; -webkit-text-stroke-width: 0px; background-color: rgb(248, 249, 250); text-decoration-thickness: initial; text-decoration-style: initial; text-decoration-color: initial; float: none; display: inline !important;&quot;&gt;2FA&lt;/span&gt;" style="text;whiteSpace=wrap;html=1;fontSize=15;" vertex="1" parent="1">
          <mxGeometry x="110" y="670" width="60" height="40" as="geometry" />
        </mxCell>
        <mxCell id="YWUODvXiD-7NT9cooijK-62" value="&lt;meta charset=&quot;utf-8&quot;&gt;&lt;span style=&quot;color: rgb(0, 0, 0); font-family: Helvetica; font-size: 15px; font-style: normal; font-variant-ligatures: normal; font-variant-caps: normal; font-weight: 400; letter-spacing: normal; orphans: 2; text-align: center; text-indent: 0px; text-transform: none; widows: 2; word-spacing: 0px; -webkit-text-stroke-width: 0px; background-color: rgb(248, 249, 250); text-decoration-thickness: initial; text-decoration-style: initial; text-decoration-color: initial; float: none; display: inline !important;&quot;&gt;2FA&lt;/span&gt;" style="text;whiteSpace=wrap;html=1;fontSize=15;" vertex="1" parent="1">
          <mxGeometry x="150" y="460" width="60" height="40" as="geometry" />
        </mxCell>
      </root>
    </mxGraphModel>
  </diagram>
</mxfile>
